<svg width="817" height="581" viewBox="0 0 817 581" fill="none" xmlns="http://www.w3.org/2000/svg">
<g id="social 1" clip-path="url(#clip0)" filter="url(#filter0_d)">
<path id="Vector" d="M46.4697 283C38.1629 283 30.0426 280.537 23.1358 275.922C16.2289 271.307 10.8456 264.747 7.66677 257.073C4.48789 249.398 3.65616 240.953 5.27674 232.806C6.89732 224.659 10.8974 217.175 16.7712 211.302C22.645 205.428 30.1287 201.428 38.2759 199.807C46.4231 198.186 54.8679 199.018 62.5424 202.197C70.2169 205.376 76.7764 210.759 81.3914 217.666C86.0065 224.573 88.4697 232.693 88.4697 241C88.4571 252.135 84.028 262.811 76.1543 270.685C68.2805 278.558 57.6049 282.987 46.4697 283V283ZM46.4697 201C38.5585 201 30.8249 203.346 24.2469 207.741C17.6689 212.136 12.542 218.384 9.51453 225.693C6.48702 233.002 5.69489 241.044 7.2383 248.804C8.78171 256.563 12.5913 263.69 18.1854 269.284C23.7795 274.878 30.9069 278.688 38.6661 280.231C46.4253 281.775 54.468 280.983 61.777 277.955C69.0861 274.928 75.3332 269.801 79.7285 263.223C84.1238 256.645 86.4697 248.911 86.4697 241C86.4577 230.395 82.2396 220.228 74.7407 212.729C67.2419 205.23 57.0747 201.012 46.4697 201V201Z" fill="#F6AD55"/>
<path id="Vector_2" d="M216.47 148C208.163 148 200.043 145.537 193.136 140.922C186.229 136.307 180.846 129.747 177.667 122.073C174.488 114.398 173.656 105.953 175.277 97.8062C176.897 89.659 180.897 82.1753 186.771 76.3015C192.645 70.4277 200.129 66.4276 208.276 64.807C216.423 63.1865 224.868 64.0182 232.542 67.1971C240.217 70.376 246.776 75.7592 251.391 82.6661C256.006 89.5729 258.47 97.6932 258.47 106C258.457 117.135 254.028 127.811 246.154 135.685C238.28 143.558 227.605 147.987 216.47 148ZM216.47 66C208.558 66 200.825 68.346 194.247 72.7412C187.669 77.1365 182.542 83.3836 179.515 90.6927C176.487 98.0017 175.695 106.044 177.238 113.804C178.782 121.563 182.591 128.69 188.185 134.284C193.78 139.878 200.907 143.688 208.666 145.231C216.425 146.775 224.468 145.983 231.777 142.955C239.086 139.928 245.333 134.801 249.729 128.223C254.124 121.645 256.47 113.911 256.47 106C256.458 95.395 252.24 85.2278 244.741 77.729C237.242 70.2301 227.075 66.012 216.47 66V66Z" fill="#F6AD55"/>
<path id="Vector_3" d="M398.47 84C390.163 84 382.043 81.5368 375.136 76.9217C368.229 72.3067 362.846 65.7472 359.667 58.0727C356.488 50.3982 355.656 41.9534 357.277 33.8062C358.897 25.659 362.897 18.1753 368.771 12.3015C374.645 6.42772 382.129 2.42762 390.276 0.807036C398.423 -0.813543 406.868 0.0182006 414.542 3.19708C422.217 6.37596 428.776 11.7592 433.391 18.6661C438.006 25.5729 440.47 33.6932 440.47 42C440.457 53.1352 436.028 63.8108 428.154 71.6846C420.281 79.5584 409.605 83.9874 398.47 84ZM398.47 2.00001C390.558 2.00001 382.825 4.34597 376.247 8.74123C369.669 13.1365 364.542 19.3836 361.515 26.6927C358.487 34.0017 357.695 42.0444 359.238 49.8036C360.782 57.5629 364.591 64.6902 370.185 70.2843C375.78 75.8784 382.907 79.688 390.666 81.2314C398.425 82.7748 406.468 81.9827 413.777 78.9552C421.086 75.9277 427.333 70.8008 431.729 64.2228C436.124 57.6449 438.47 49.9113 438.47 42C438.458 31.395 434.24 21.2278 426.741 13.729C419.242 6.23009 409.075 2.01198 398.47 2.00001V2.00001Z" fill="#F6AD55"/>
<path id="Vector_4" d="M592.47 150C584.163 150 576.043 147.537 569.136 142.922C562.229 138.307 556.846 131.747 553.667 124.073C550.488 116.398 549.656 107.953 551.277 99.8062C552.897 91.659 556.897 84.1753 562.771 78.3015C568.645 72.4277 576.129 68.4276 584.276 66.807C592.423 65.1865 600.868 66.0182 608.542 69.1971C616.217 72.376 622.776 77.7592 627.391 84.6661C632.006 91.5729 634.47 99.6932 634.47 108C634.457 119.135 630.028 129.811 622.154 137.685C614.281 145.558 603.605 149.987 592.47 150V150ZM592.47 68C584.558 68 576.825 70.346 570.247 74.7412C563.669 79.1365 558.542 85.3836 555.515 92.6927C552.487 100.002 551.695 108.044 553.238 115.804C554.782 123.563 558.591 130.69 564.185 136.284C569.78 141.878 576.907 145.688 584.666 147.231C592.425 148.775 600.468 147.983 607.777 144.955C615.086 141.928 621.333 136.801 625.729 130.223C630.124 123.645 632.47 115.911 632.47 108C632.458 97.395 628.24 87.2278 620.741 79.729C613.242 72.2301 603.075 68.012 592.47 68V68Z" fill="#F6AD55"/>
<path id="Vector_5" d="M770.47 251C762.163 251 754.043 248.537 747.136 243.922C740.229 239.307 734.846 232.747 731.667 225.073C728.488 217.398 727.656 208.953 729.277 200.806C730.897 192.659 734.897 185.175 740.771 179.302C746.645 173.428 754.129 169.428 762.276 167.807C770.423 166.186 778.868 167.018 786.542 170.197C794.217 173.376 800.776 178.759 805.391 185.666C810.006 192.573 812.47 200.693 812.47 209C812.457 220.135 808.028 230.811 800.154 238.685C792.281 246.558 781.605 250.987 770.47 251V251ZM770.47 169C762.558 169 754.825 171.346 748.247 175.741C741.669 180.136 736.542 186.384 733.515 193.693C730.487 201.002 729.695 209.044 731.238 216.804C732.782 224.563 736.591 231.69 742.185 237.284C747.78 242.878 754.907 246.688 762.666 248.231C770.425 249.775 778.468 248.983 785.777 245.955C793.086 242.928 799.333 237.801 803.729 231.223C808.124 224.645 810.47 216.911 810.47 209C810.458 198.395 806.24 188.228 798.741 180.729C791.242 173.23 781.075 169.012 770.47 169V169Z" fill="#F6AD55"/>
<path id="Vector_6" d="M240.47 94.4977L245.47 93.4977C245.47 93.4977 241.27 98.1977 240.47 98.4977C240.395 99.4963 240.395 100.499 240.47 101.498C230.87 142.698 195.47 124.498 195.47 124.498C208.37 124.798 209.47 119.498 209.47 119.498C201.97 118.398 200.47 113.498 200.47 113.498C201.143 113.853 201.923 113.947 202.661 113.762C203.399 113.578 204.043 113.128 204.47 112.498C196.37 110.398 197.47 102.498 197.47 102.498C198.913 103.54 200.601 104.194 202.37 104.398C201.47 103.298 193.87 94.1977 198.47 89.4977C198.47 89.4977 204.07 99.4977 218.77 100.398L219.77 100.198C219.6 99.4775 219.532 98.7368 219.57 97.9977C219.57 95.213 220.676 92.5423 222.645 90.5731C224.614 88.604 227.285 87.4977 230.07 87.4977C237.07 87.4977 238.57 91.4977 238.57 91.4977L243.57 88.4977C243.47 88.4977 242.97 93.4977 240.47 94.4977Z" fill="#F6AD55"/>
<path id="Vector_7" d="M559.799 539.633L570.808 545.029L596.86 505.136L580.613 497.172L559.799 539.633Z" fill="#FFB8B8"/>
<path id="Vector_8" d="M558.753 534.663L580.432 545.289L580.433 545.29C582.248 546.179 583.869 547.417 585.205 548.933C586.541 550.449 587.565 552.214 588.219 554.125C588.873 556.037 589.144 558.059 589.016 560.076C588.889 562.092 588.366 564.064 587.476 565.878L587.256 566.327L551.761 548.928L558.753 534.663Z" fill="#2F2E41"/>
<path id="Vector_9" d="M668.893 558.443L681.153 558.442L686.985 511.155H668.891L668.893 558.443Z" fill="#FFB8B8"/>
<path id="Vector_10" d="M665.766 550.44L689.909 550.439H689.91C691.931 550.439 693.932 550.837 695.799 551.611C697.665 552.384 699.362 553.517 700.79 554.946C702.219 556.375 703.352 558.071 704.126 559.938C704.899 561.804 705.297 563.805 705.297 565.826V566.326L665.766 566.327L665.766 550.44Z" fill="#2F2E41"/>
<path id="Vector_11" d="M642.559 232.089C656.123 232.089 667.12 221.093 667.12 207.528C667.12 193.964 656.123 182.967 642.559 182.967C628.994 182.967 617.998 193.964 617.998 207.528C617.998 221.093 628.994 232.089 642.559 232.089Z" fill="#FFB8B8"/>
<path id="Vector_12" d="M667.017 542.846C665.858 542.844 664.745 542.396 663.908 541.595C663.072 540.793 662.577 539.699 662.526 538.542L653.032 412.181C653.021 411.85 652.901 411.531 652.691 411.276C652.48 411.02 652.19 410.842 651.867 410.768C651.545 410.694 651.206 410.729 650.905 410.868C650.604 411.006 650.358 411.24 650.204 411.534L589.473 527.476C588.921 528.516 587.986 529.3 586.866 529.662C585.746 530.024 584.529 529.934 583.474 529.413L566.544 520.948C565.482 520.414 564.674 519.483 564.295 518.356C563.916 517.229 563.997 515.999 564.521 514.932L600.76 441.5L624.763 386.495C634.027 368.246 643.865 358.841 654.839 357.744C666.097 356.62 678.12 364.361 691.601 381.411L691.711 381.55L691.708 381.728L689.708 536.085C689.712 537.206 689.294 538.288 688.539 539.116C687.784 539.944 686.745 540.459 685.628 540.559L667.457 542.825C667.309 542.839 667.162 542.846 667.017 542.846Z" fill="#F6AD55"/>
<path id="Vector_13" d="M616.636 395.378C617.973 394.553 619.112 393.446 619.974 392.133C620.837 390.82 621.4 389.335 621.626 387.78C621.852 386.226 621.734 384.641 621.281 383.138C620.829 381.634 620.051 380.248 619.005 379.077L622.708 281.221L604.708 283.464L603.191 378.664C601.34 380.552 600.247 383.054 600.117 385.695C599.988 388.336 600.832 390.933 602.489 392.993C604.147 395.053 606.502 396.434 609.11 396.874C611.717 397.313 614.395 396.781 616.636 395.378V395.378Z" fill="#FFB8B8"/>
<path id="Vector_14" d="M628.023 298.522L603.85 295.775C603.163 295.697 602.5 295.471 601.907 295.114C601.314 294.756 600.806 294.276 600.415 293.704C600.025 293.132 599.763 292.483 599.646 291.8C599.53 291.118 599.562 290.419 599.74 289.75L605.98 266.312C606.4 262.796 608.198 259.59 610.978 257.396C613.758 255.203 617.295 254.202 620.812 254.612C624.33 255.022 627.541 256.81 629.743 259.584C631.944 262.359 632.955 265.892 632.555 269.411L633.381 293.573C633.404 294.264 633.278 294.953 633.011 295.592C632.745 296.231 632.343 296.804 631.835 297.274C631.326 297.744 630.723 298.098 630.065 298.314C629.407 298.529 628.71 298.6 628.023 298.522V298.522Z" fill="#F9F7F4"/>
<path id="Vector_15" d="M732.149 236.922C732.026 237.462 731.946 238.01 731.91 238.562L688.952 263.344L678.511 257.333L667.38 271.905L684.83 284.343C686.24 285.348 687.937 285.868 689.668 285.826C691.399 285.784 693.069 285.181 694.428 284.109L738.725 249.163C740.724 249.903 742.901 250.017 744.966 249.49C747.032 248.962 748.887 247.818 750.287 246.21C751.686 244.603 752.563 242.607 752.801 240.488C753.038 238.37 752.625 236.229 751.616 234.352C750.607 232.474 749.051 230.947 747.154 229.976C745.256 229.004 743.108 228.633 740.995 228.912C738.881 229.191 736.903 230.107 735.323 231.538C733.743 232.969 732.636 234.847 732.149 236.922V236.922Z" fill="#FFB8B8"/>
<path id="Vector_16" d="M687.516 264.518L673.632 282.512C673.237 283.024 672.737 283.445 672.164 283.746C671.592 284.047 670.962 284.221 670.316 284.256C669.67 284.291 669.024 284.187 668.423 283.951C667.821 283.714 667.277 283.35 666.829 282.884L651.111 266.563C648.501 264.528 646.805 261.54 646.395 258.256C645.985 254.972 646.894 251.659 648.924 249.044C650.954 246.43 653.937 244.727 657.221 244.31C660.504 243.893 663.819 244.795 666.438 246.819L686.151 257.842C686.715 258.158 687.205 258.591 687.586 259.113C687.968 259.635 688.233 260.234 688.362 260.867C688.492 261.501 688.483 262.155 688.337 262.785C688.191 263.415 687.911 264.006 687.516 264.518H687.516Z" fill="#F9F7F4"/>
<path id="Vector_17" d="M698.842 389.063L672.188 259.234C670.921 253.064 667.312 247.624 662.118 244.059C656.925 240.494 650.551 239.081 644.338 240.116L635.449 241.598C632.361 242.112 629.404 243.23 626.748 244.887C624.092 246.545 621.789 248.709 619.969 251.256V251.256C617.078 255.304 615.13 259.948 614.27 264.847C613.409 269.746 613.657 274.775 614.996 279.566L629.708 332.221L618.79 388.633C618.668 389.259 618.697 389.905 618.876 390.517C619.054 391.128 619.377 391.689 619.816 392.151C620.255 392.613 620.798 392.963 621.4 393.172C622.002 393.382 622.646 393.444 623.277 393.354C628.743 392.571 637.753 391.455 648.102 390.847L653.708 369.221L655.989 390.503C668.701 390.148 682.501 390.771 693.885 393.728C694.544 393.904 695.236 393.909 695.897 393.742C696.558 393.576 697.166 393.243 697.662 392.776C698.159 392.309 698.528 391.723 698.734 391.073C698.94 390.423 698.977 389.731 698.842 389.063Z" fill="#F9F7F4"/>
<path id="Vector_18" d="M652.01 202.064C658.322 206.384 666.611 210.825 673.059 206.224C677.292 203.203 678.626 197.609 676.909 192.7C673.822 183.871 665.34 179.984 657.229 177.005C646.684 173.132 635.203 170.051 624.318 172.824C613.432 175.598 603.812 186.137 605.777 197.197C607.357 206.092 615.747 213.492 614.556 222.447C613.357 231.459 603.222 236.203 594.274 237.814C585.327 239.424 575.314 239.942 568.884 246.369C560.681 254.568 562.729 269.222 570.448 277.878C578.167 286.535 589.815 290.458 601.102 293.126C616.056 296.66 632.231 298.517 646.434 292.652C660.637 286.787 671.689 270.998 667.575 256.192C665.837 249.939 661.743 244.653 657.787 239.508C653.83 234.362 649.823 228.982 648.314 222.669C647.056 217.408 647.987 211.3 651.476 207.354C652.11 206.663 652.51 205.789 652.617 204.858C652.723 203.926 652.532 202.984 652.07 202.168L652.01 202.064Z" fill="#2F2E41"/>
<path id="Vector_19" d="M409.909 21.2227C412.707 21.2311 415.387 22.3462 417.366 24.3245C419.344 26.3028 420.459 28.9835 420.467 31.7812V52.896C420.459 55.6937 419.344 58.3745 417.366 60.3528C415.387 62.331 412.707 63.4461 409.909 63.4545H388.794C385.997 63.4461 383.316 62.331 381.338 60.3528C379.359 58.3745 378.244 55.6937 378.236 52.896V31.7812C378.244 28.9835 379.359 26.3028 381.338 24.3245C383.316 22.3462 385.997 21.2311 388.794 21.2227H409.909V21.2227ZM409.909 17H388.794C384.878 17.0114 381.125 18.5724 378.355 21.3419C375.585 24.1115 374.024 27.8645 374.013 31.7812V52.896C374.024 56.8127 375.585 60.5657 378.355 63.3353C381.125 66.1048 384.878 67.6658 388.794 67.6772H409.909C413.826 67.6658 417.579 66.1048 420.348 63.3353C423.118 60.5657 424.679 56.8127 424.69 52.896V31.7812C424.679 27.8645 423.118 24.1115 420.348 21.3419C417.579 18.5724 413.826 17.0114 409.909 17V17Z" fill="#F6AD55"/>
<path id="Vector_20" d="M413.076 31.7812C412.239 31.7794 411.436 31.4452 410.845 30.8519C410.253 30.2587 409.922 29.4549 409.923 28.6173C409.923 27.7797 410.257 26.9766 410.849 26.3847C411.442 25.7927 412.245 25.4602 413.083 25.4602C413.921 25.4602 414.724 25.7927 415.317 26.3847C415.909 26.9766 416.243 27.7797 416.244 28.6173C416.245 29.4549 415.913 30.2587 415.322 30.8519C414.73 31.4452 413.928 31.7794 413.09 31.7812C413.085 31.7812 413.081 31.7812 413.076 31.7812Z" fill="#F6AD55"/>
<path id="Vector_21" d="M399.352 33.892C401.022 33.892 402.655 34.3874 404.044 35.3155C405.433 36.2436 406.516 37.5628 407.155 39.1062C407.794 40.6496 407.962 42.3479 407.636 43.9864C407.31 45.6249 406.505 47.1299 405.324 48.3112C404.143 49.4925 402.638 50.2969 400.999 50.6228C399.361 50.9488 397.663 50.7815 396.119 50.1422C394.576 49.5029 393.257 48.4203 392.329 47.0312C391.4 45.6422 390.905 44.0092 390.905 42.3386C390.905 40.0984 391.795 37.95 393.379 36.3659C394.963 34.7819 397.111 33.892 399.352 33.892V33.892ZM399.352 29.6693C396.846 29.6693 394.396 30.4123 392.313 31.8044C390.229 33.1965 388.606 35.1752 387.647 37.4902C386.688 39.8052 386.437 42.3526 386.926 44.8102C387.415 47.2678 388.621 49.5253 390.393 51.2971C392.165 53.0689 394.422 54.2756 396.88 54.7644C399.337 55.2533 401.885 55.0024 404.2 54.0435C406.515 53.0846 408.494 51.4607 409.886 49.3773C411.278 47.2938 412.021 44.8443 412.021 42.3386C412.021 38.9785 410.686 35.756 408.31 33.3801C405.934 31.0041 402.712 29.6693 399.352 29.6693V29.6693Z" fill="#F6AD55"/>
<path id="Vector_22" d="M167.168 553.731L155.235 550.919L160.4 503.554L178.012 507.704L167.168 553.731Z" fill="#FFB8B8"/>
<path id="Vector_23" d="M167.486 566.015L129.009 556.95L129.124 556.464C129.587 554.497 130.433 552.641 131.614 551.001C132.794 549.361 134.286 547.97 136.005 546.907C137.723 545.844 139.634 545.13 141.628 544.805C143.623 544.48 145.661 544.552 147.628 545.015L147.629 545.015L171.129 550.552L167.486 566.015Z" fill="#2F2E41"/>
<path id="Vector_24" d="M213.67 554.131H201.41L195.578 506.843L213.672 506.844L213.67 554.131Z" fill="#FFB8B8"/>
<path id="Vector_25" d="M216.796 566.015L177.266 566.014V565.514C177.266 563.493 177.664 561.493 178.437 559.626C179.21 557.759 180.344 556.063 181.772 554.634C183.201 553.205 184.897 552.072 186.764 551.299C188.631 550.526 190.632 550.128 192.652 550.128H192.653L216.797 550.129L216.796 566.015Z" fill="#2F2E41"/>
<path id="Vector_26" d="M279.884 367.116C280.705 365.777 281.223 364.275 281.4 362.714C281.578 361.154 281.412 359.574 280.913 358.084C280.414 356.595 279.594 355.234 278.512 354.096C277.43 352.957 276.111 352.07 274.649 351.497L238.755 260.474L218.784 272.597L260.347 358.258C259.546 360.778 259.698 363.504 260.773 365.92C261.849 368.335 263.773 370.273 266.181 371.364C268.589 372.456 271.314 372.627 273.839 371.844C276.365 371.061 278.516 369.379 279.884 367.116V367.116Z" fill="#FFB8B8"/>
<path id="Vector_27" d="M246.383 275.527L223.568 283.972C222.919 284.213 222.226 284.31 221.536 284.258C220.845 284.207 220.174 284.007 219.568 283.672C218.962 283.338 218.436 282.876 218.024 282.32C217.612 281.764 217.325 281.125 217.183 280.448L212.187 256.713C210.977 253.385 211.136 249.713 212.629 246.502C214.122 243.291 216.827 240.802 220.152 239.583C223.477 238.363 227.149 238.512 230.365 239.996C233.58 241.48 236.076 244.178 237.305 247.499L248.935 268.694C249.267 269.301 249.465 269.972 249.515 270.663C249.565 271.353 249.466 272.046 249.223 272.695C248.981 273.343 248.602 273.932 248.112 274.421C247.622 274.909 247.032 275.287 246.383 275.527V275.527Z" fill="#F9F7F4"/>
<path id="Vector_28" d="M212.855 537.155C212.796 537.155 212.736 537.154 212.675 537.153L195.298 536.457C194.123 536.417 193.012 535.916 192.204 535.063C191.396 534.21 190.955 533.073 190.978 531.899L192.311 435.899C192.317 435.512 192.173 435.139 191.911 434.856C191.648 434.573 191.286 434.403 190.901 434.38C190.515 434.357 190.136 434.483 189.841 434.733C189.547 434.983 189.36 435.337 189.32 435.721L179.239 531.826C179.134 532.805 178.712 533.722 178.038 534.439C177.364 535.155 176.474 535.632 175.503 535.796L175.443 535.806L159.129 534.524C158.486 534.622 157.83 534.579 157.205 534.399C156.58 534.219 156.001 533.905 155.509 533.48C155.017 533.054 154.623 532.528 154.354 531.935C154.085 531.343 153.948 530.699 153.952 530.049L154.927 367.27L234.978 372.336L217.328 533.147C217.204 534.247 216.68 535.264 215.855 536.003C215.03 536.742 213.963 537.152 212.855 537.155V537.155Z" fill="#F6AD55"/>
<path id="Vector_29" d="M198.223 225.17C211.788 225.17 222.784 214.174 222.784 200.609C222.784 187.044 211.788 176.048 198.223 176.048C184.659 176.048 173.662 187.044 173.662 200.609C173.662 214.174 184.659 225.17 198.223 225.17Z" fill="#FFB8B8"/>
<path id="Vector_30" d="M230.998 379.503C230.885 379.503 230.772 379.499 230.658 379.491L156.674 374.078C155.524 373.995 154.45 373.472 153.674 372.619C152.898 371.767 152.479 370.648 152.504 369.495L154.454 276.591C154.324 270.891 155.357 265.223 157.493 259.936C159.628 254.649 162.82 249.854 166.872 245.843C170.925 241.832 175.754 238.69 181.062 236.61C186.371 234.53 192.049 233.555 197.748 233.744C203.446 233.934 209.046 235.285 214.205 237.714C219.364 240.143 223.973 243.599 227.749 247.871C231.526 252.142 234.392 257.14 236.17 262.557C237.949 267.975 238.603 273.698 238.094 279.377C236.8 293.696 235.771 356.247 235.486 375.077C235.468 376.256 234.987 377.381 234.148 378.209C233.308 379.037 232.177 379.502 230.998 379.503V379.503Z" fill="#F9F7F4"/>
<path id="Vector_31" d="M99.1526 228.192C99.2754 228.731 99.3554 229.28 99.392 229.832L142.349 254.614L152.791 248.603L163.922 263.175L146.472 275.613C145.062 276.617 143.364 277.138 141.634 277.096C139.903 277.054 138.233 276.451 136.873 275.379L92.5769 240.433C90.5778 241.173 88.4008 241.287 86.3355 240.759C84.2701 240.232 82.4143 239.088 81.0148 237.48C79.6153 235.872 78.7386 233.876 78.5011 231.758C78.2637 229.64 78.6768 227.499 79.6855 225.621C80.6943 223.743 82.2509 222.217 84.1482 221.245C86.0455 220.274 88.1937 219.903 90.307 220.182C92.4203 220.461 94.3986 221.377 95.9787 222.808C97.5588 224.238 98.6659 226.116 99.1526 228.192V228.192Z" fill="#FFB8B8"/>
<path id="Vector_32" d="M142.94 252.137C143.069 251.503 143.333 250.905 143.715 250.383C144.097 249.861 144.586 249.427 145.151 249.112L164.864 238.089C167.483 236.069 170.796 235.169 174.078 235.588C177.359 236.006 180.34 237.709 182.369 240.322C184.397 242.934 185.307 246.245 184.898 249.527C184.49 252.81 182.797 255.797 180.19 257.833L164.473 274.154C164.025 274.62 163.481 274.984 162.879 275.22C162.277 275.457 161.632 275.561 160.986 275.526C160.34 275.49 159.71 275.316 159.137 275.015C158.565 274.714 158.064 274.294 157.669 273.782L143.786 255.788C143.39 255.276 143.11 254.684 142.964 254.054C142.818 253.424 142.81 252.77 142.94 252.137V252.137Z" fill="#F9F7F4"/>
<path id="Vector_33" d="M210.916 220.054C207.136 220.026 203.424 219.04 200.128 217.189C196.832 215.339 194.059 212.683 192.068 209.47C191.851 209.131 190.669 207.395 189.3 205.385C185.454 199.736 184.552 198.393 184.475 198.195C183.434 195.51 180.13 194.473 177.542 194.075C177.059 194.001 176.569 193.936 176.078 193.869C172.432 193.381 168.663 192.876 166.596 188.869C165.08 185.929 162.601 173.955 164.505 171.029C166.892 167.36 171.475 168.551 175.908 169.704C178.745 170.441 181.677 171.203 184.014 170.717C194.143 168.61 205.624 166.221 215.763 172.396C223.832 177.309 228.686 186.588 228.43 196.612C228.155 207.377 223.46 215.874 215.871 219.343L214.291 219.803L213.402 219.912C212.577 220.006 211.747 220.054 210.916 220.054V220.054Z" fill="#2F2E41"/>
<path id="Vector_34" d="M771.94 181.799C765.616 181.799 759.485 183.976 754.576 187.963C749.667 191.951 746.28 197.506 744.984 203.696C743.687 209.886 744.56 216.333 747.456 221.955C750.352 227.578 755.095 232.032 760.887 234.57C760.771 232.452 760.932 230.327 761.366 228.251C761.895 226.013 764.908 213.238 764.908 213.238C764.306 211.867 764.004 210.383 764.022 208.885C764.022 204.803 766.383 201.754 769.334 201.754C771.842 201.754 773.047 203.635 773.047 205.885C773.047 208.406 771.436 212.168 770.613 215.66C770.448 216.307 770.439 216.983 770.584 217.635C770.729 218.286 771.026 218.894 771.449 219.41C771.873 219.926 772.412 220.335 773.023 220.604C773.633 220.873 774.299 220.995 774.965 220.959C780.178 220.959 783.695 214.258 783.695 206.316C783.695 200.279 779.625 195.766 772.236 195.766C763.887 195.766 758.674 202 758.674 208.959C758.592 210.922 759.24 212.845 760.493 214.357C760.713 214.538 760.87 214.785 760.941 215.061C761.011 215.337 760.993 215.629 760.887 215.894C760.752 216.398 760.457 217.615 760.321 218.107C760.298 218.256 760.239 218.397 760.15 218.518C760.061 218.64 759.945 218.738 759.81 218.805C759.675 218.873 759.526 218.907 759.376 218.905C759.225 218.903 759.077 218.866 758.944 218.795C755.096 217.222 753.301 213.017 753.301 208.271C753.301 200.451 759.903 191.069 772.986 191.069C783.498 191.069 790.42 198.68 790.42 206.844C790.42 217.652 784.408 225.718 775.555 225.718C772.58 225.718 769.789 224.107 768.83 222.287C768.83 222.287 767.231 228.632 766.887 229.861C766.251 231.95 765.32 233.938 764.121 235.763C767.909 236.882 771.893 237.173 775.804 236.617C779.714 236.06 783.459 234.669 786.785 232.538C790.11 230.408 792.939 227.586 795.079 224.266C797.218 220.946 798.619 217.204 799.185 213.295C799.751 209.386 799.471 205.401 798.361 201.61C797.252 197.819 795.341 194.311 792.757 191.324C790.173 188.337 786.977 185.94 783.385 184.296C779.793 182.653 775.89 181.801 771.94 181.799V181.799Z" fill="#F6AD55"/>
<path id="Vector_35" d="M616.846 91.4667L581.422 80.5681C580.973 80.4059 580.497 80.3339 580.021 80.3562C579.544 80.3785 579.077 80.4948 578.645 80.6982C578.214 80.9017 577.827 81.1884 577.506 81.5419C577.186 81.8954 576.938 82.3086 576.778 82.758L565.855 118.261C565.586 119.224 565.696 120.253 566.162 121.137C566.629 122.021 567.417 122.693 568.363 123.014L603.777 133.91C604.72 134.16 605.724 134.028 606.571 133.543C607.418 133.059 608.04 132.26 608.301 131.32L619.224 95.8168C619.368 95.3753 619.42 94.9091 619.377 94.4467C619.335 93.9844 619.198 93.5356 618.975 93.1282C618.752 92.7207 618.448 92.3632 618.082 92.0774C617.716 91.7917 617.296 91.5839 616.846 91.4667ZM580.067 118.881L573.987 117.01L579.803 98.1038L585.884 99.9746L580.067 118.881ZM583.938 96.2294L583.895 96.2159C583.022 95.941 582.293 95.3312 581.869 94.5201C581.444 93.709 581.359 92.7628 581.631 91.8887C581.903 91.0147 582.51 90.2841 583.32 89.8571C584.13 89.4301 585.076 89.3415 585.951 89.6106C586.826 89.8798 587.558 90.4848 587.988 91.2931C588.417 92.1014 588.509 93.047 588.243 93.9228C587.977 94.7987 587.374 95.5332 586.567 95.9655C585.76 96.3979 584.815 96.4927 583.938 96.2294V96.2294ZM602.291 125.718L596.21 123.848L599.39 113.51C600.152 111.033 599.788 109.069 597.588 108.392C596.898 108.186 596.162 108.199 595.479 108.429C594.797 108.659 594.203 109.095 593.78 109.677C593.47 110.108 593.243 110.592 593.11 111.106L589.797 121.874L583.716 120.004L589.533 101.097L595.613 102.968L594.804 105.599C595.652 104.812 596.697 104.267 597.828 104.024C598.96 103.78 600.136 103.845 601.233 104.213C605.225 105.441 607.435 109.001 605.69 114.673L602.291 125.718Z" fill="#F6AD55"/>
<path id="Vector_36" fill-rule="evenodd" clip-rule="evenodd" d="M73.9259 241.165C73.925 235.918 72.4207 230.781 69.5911 226.363C66.7615 221.945 62.7252 218.429 57.9599 216.234C53.1947 214.038 47.9001 213.253 42.7029 213.973C37.5057 214.693 32.6236 216.887 28.6345 220.295C24.6454 223.704 21.7164 228.183 20.1943 233.205C18.6722 238.226 18.6206 243.578 20.0457 248.628C21.4709 253.677 24.313 258.213 28.2357 261.697C32.1584 265.181 36.9973 267.469 42.1797 268.289V249.104H35.2066V241.165H42.1797V235.115C42.1797 228.235 46.2797 224.431 52.5505 224.431C54.6099 224.46 56.6644 224.639 58.6975 224.968V231.726H55.2336C51.8249 231.726 50.7585 233.841 50.7585 236.016V241.166H58.3727L57.1568 249.105H50.7585V268.291C57.2174 267.268 63.0992 263.974 67.3461 259.002C71.593 254.029 73.9261 247.704 73.9259 241.165L73.9259 241.165Z" fill="#F6AD55"/>
</g>
<defs>
<filter id="filter0_d" x="0" y="0" width="816.47" height="581" filterUnits="userSpaceOnUse" color-interpolation-filters="sRGB">
<feFlood flood-opacity="0" result="BackgroundImageFix"/>
<feColorMatrix in="SourceAlpha" type="matrix" values="0 0 0 0 0 0 0 0 0 0 0 0 0 0 0 0 0 0 127 0"/>
<feOffset dy="10"/>
<feGaussianBlur stdDeviation="2"/>
<feColorMatrix type="matrix" values="0 0 0 0 0 0 0 0 0 0 0 0 0 0 0 0 0 0 0.25 0"/>
<feBlend mode="normal" in2="BackgroundImageFix" result="effect1_dropShadow"/>
<feBlend mode="normal" in="SourceGraphic" in2="effect1_dropShadow" result="shape"/>
</filter>
<clipPath id="clip0">
<rect width="808.47" height="567" fill="white" transform="translate(4)"/>
</clipPath>
</defs>
</svg>
